<svg xmlns="http://www.w3.org/2000/svg" width="245" height="295" viewBox="0 0 245 295">
  <path d="M156 89c5.523 0 10 4.477 10 10v186c0 5.523-4.477 10-10 10H0V99c0-5.523 4.477-10 10-10h146ZM31 115c-5.523 0-10 4.477-10 10v144h115c5.523 0 10-4.477 10-10V125c0-5.523-4.477-10-10-10H31Z"/>
  <path d="M156 89c5.523 0 10 4.477 10 10v186c0 5.523-4.477 10-10 10H0V99c0-5.523 4.477-10 10-10h146ZM31 115c-5.523 0-10 4.477-10 10v144h115c5.523 0 10-4.477 10-10V125c0-5.523-4.477-10-10-10H31Z"/>
  <path d="M196 44c5.523 0 10 4.477 10 10v186c0 5.523-4.477 10-10 10h-31v-26h11c5.523 0 10-4.477 10-10V80c0-5.523-4.477-10-10-10H71c-5.523 0-10 4.477-10 10v9H40V54c0-5.523 4.477-10 10-10h146Z"/>
  <path d="M235 0c5.523 0 10 4.477 10 10v186c0 5.523-4.477 10-10 10h-31v-26h11c5.523 0 10-4.477 10-10V36c0-5.523-4.477-10-10-10H110c-5.523 0-10 4.477-10 10v9H79V10c0-5.523 4.477-10 10-10h146Z"/>
</svg>
